<svg width="378" height="54" viewBox="0 0 378 54" fill="none" xmlns="http://www.w3.org/2000/svg">
<path d="M5.36884 0.72316H11.2248V1.56316H5.36884V0.72316Z" fill="black"/>
<path d="M12.5642 0.72316H18.4202V1.56316H12.5642V0.72316Z" fill="black"/>
<path d="M34.1501 0.72316H40.0061V1.56316H34.1501V0.72316Z" fill="black"/>
<path d="M41.3454 0.72316H47.2014V1.56316H41.3454V0.72316Z" fill="black"/>
<path d="M293.181 0.72316H299.037V1.56316H293.181V0.72316Z" fill="black"/>
<path d="M300.377 0.72316H306.233V1.56316H300.377V0.72316Z" fill="black"/>
<path d="M307.572 0.72316H313.428V1.56316H307.572V0.72316Z" fill="black"/>
<path d="M314.767 0.72316H320.623V1.56316H314.767V0.72316Z" fill="black"/>
<path d="M350.744 0.72316H356.6V1.56316H350.744V0.72316Z" fill="black"/>
<path d="M357.939 0.72316H363.795V1.56316H357.939V0.72316Z" fill="black"/>
<path d="M365.134 0.72316H370.99V1.56316H365.134V0.72316Z" fill="black"/>
<path d="M0.693527 3.70316H1.50953V13.6632H0.693527V3.70316Z" fill="black"/>
<path d="M25.3035 13.4352L24.5115 13.7832L20.0715 3.89516L20.8755 3.55916L25.3035 13.4352Z" fill="black"/>
<path d="M31.6948 3.55916L32.4508 3.89516L28.0708 13.7832L27.3148 13.4472L31.6948 3.55916Z" fill="black"/>
<path d="M51.0607 3.70316H51.8767V13.6632H51.0607V3.70316Z" fill="black"/>
<path d="M62.9313 13.7232H68.7873V14.5632H62.9313V13.7232Z" fill="black"/>
<path d="M70.1267 13.7232H75.9827V14.5632H70.1267V13.7232Z" fill="black"/>
<path d="M77.322 13.7232H83.178V14.5632H77.322V13.7232Z" fill="black"/>
<path d="M98.9079 13.7232H104.764V14.5632H98.9079V13.7232Z" fill="black"/>
<path d="M106.103 13.7232H111.959V14.5632H106.103V13.7232Z" fill="black"/>
<path d="M113.299 13.7232H119.155V14.5632H113.299V13.7232Z" fill="black"/>
<path d="M127.689 13.7232H133.545V14.5632H127.689V13.7232Z" fill="black"/>
<path d="M134.884 13.7232H140.74V14.5632H134.884V13.7232Z" fill="black"/>
<path d="M142.08 13.7232H147.936V14.5632H142.08V13.7232Z" fill="black"/>
<path d="M156.47 13.7232H162.326V14.5632H156.47V13.7232Z" fill="black"/>
<path d="M163.666 13.7232H169.522V14.5632H163.666V13.7232Z" fill="black"/>
<path d="M178.056 13.7232H183.912V14.5632H178.056V13.7232Z" fill="black"/>
<path d="M192.447 13.7232H198.303V14.5632H192.447V13.7232Z" fill="black"/>
<path d="M206.838 13.7232H212.694V14.5632H206.838V13.7232Z" fill="black"/>
<path d="M214.033 13.7232H219.889V14.5632H214.033V13.7232Z" fill="black"/>
<path d="M242.814 13.7232H248.67V14.5632H242.814V13.7232Z" fill="black"/>
<path d="M250.009 13.7232H255.865V14.5632H250.009V13.7232Z" fill="black"/>
<path d="M257.205 13.7232H263.061V14.5632H257.205V13.7232Z" fill="black"/>
<path d="M288.506 3.70316H289.322V13.6632H288.506V3.70316Z" fill="black"/>
<path d="M293.181 13.7232H299.037V14.5632H293.181V13.7232Z" fill="black"/>
<path d="M300.377 13.7232H306.233V14.5632H300.377V13.7232Z" fill="black"/>
<path d="M307.572 13.7232H313.428V14.5632H307.572V13.7232Z" fill="black"/>
<path d="M327.507 13.4352L326.715 13.7832L322.275 3.89516L323.079 3.55916L327.507 13.4352Z" fill="black"/>
<path d="M348.289 3.55916L349.045 3.89516L344.665 13.7832L343.909 13.4472L348.289 3.55916Z" fill="black"/>
<path d="M357.939 13.7232H363.795V14.5632H357.939V13.7232Z" fill="black"/>
<path d="M377.874 13.4352L377.082 13.7832L372.642 3.89516L373.446 3.55916L377.874 13.4352Z" fill="black"/>
<path d="M0.693527 16.7032H1.50953V26.6632H0.693527V16.7032Z" fill="black"/>
<path d="M15.0842 16.7032H15.9002V26.6632H15.0842V16.7032Z" fill="black"/>
<path d="M25.3035 26.4352L24.5115 26.7832L20.0715 16.8952L20.8755 16.5592L25.3035 26.4352Z" fill="black"/>
<path d="M31.6948 16.5592L32.4508 16.8952L28.0708 26.7832L27.3148 26.4472L31.6948 16.5592Z" fill="black"/>
<path d="M36.6701 16.7032H37.4861V26.6632H36.6701V16.7032Z" fill="black"/>
<path d="M51.0607 16.7032H51.8767V26.6632H51.0607V16.7032Z" fill="black"/>
<path d="M60.476 16.5592L61.232 16.8952L56.852 26.7832L56.096 26.4472L60.476 16.5592Z" fill="black"/>
<path d="M70.1267 26.7232H75.9827V27.5632H70.1267V26.7232Z" fill="black"/>
<path d="M90.0613 26.4352L89.2693 26.7832L84.8293 16.8952L85.6333 16.5592L90.0613 26.4352Z" fill="black"/>
<path d="M96.4526 16.5592L97.2086 16.8952L92.8286 26.7832L92.0726 26.4472L96.4526 16.5592Z" fill="black"/>
<path d="M106.103 26.7232H111.959V27.5632H106.103V26.7232Z" fill="black"/>
<path d="M113.299 26.7232H119.155V27.5632H113.299V26.7232Z" fill="black"/>
<path d="M125.234 16.5592L125.99 16.8952L121.61 26.7832L120.854 26.4472L125.234 16.5592Z" fill="black"/>
<path d="M134.884 26.7232H140.74V27.5632H134.884V26.7232Z" fill="black"/>
<path d="M142.08 26.7232H147.936V27.5632H142.08V26.7232Z" fill="black"/>
<path d="M154.015 16.5592L154.771 16.8952L150.391 26.7832L149.635 26.4472L154.015 16.5592Z" fill="black"/>
<path d="M163.666 26.7232H169.522V27.5632H163.666V26.7232Z" fill="black"/>
<path d="M174.629 18.2512H173.969L172.541 16.4632H173.849L174.629 18.2512Z" fill="black"/>
<path d="M187.772 16.7032H188.588V26.6632H187.772V16.7032Z" fill="black"/>
<path d="M202.102 16.7032H203.158L202.786 20.3392H202.102V16.7032Z" fill="black"/>
<path d="M206.838 26.7232H212.694V27.5632H206.838V26.7232Z" fill="black"/>
<path d="M226.772 26.4352L225.98 26.7832L221.54 16.8952L222.344 16.5592L226.772 26.4352Z" fill="black"/>
<path d="M240.359 16.5592L241.115 16.8952L236.735 26.7832L235.979 26.4472L240.359 16.5592Z" fill="black"/>
<path d="M250.009 26.7232H255.865V27.5632H250.009V26.7232Z" fill="black"/>
<path d="M269.944 26.4352L269.152 26.7832L264.712 16.8952L265.516 16.5592L269.944 26.4352Z" fill="black"/>
<path d="M300.377 26.7232H306.233V27.5632H300.377V26.7232Z" fill="black"/>
<path d="M307.572 26.7232H313.428V27.5632H307.572V26.7232Z" fill="black"/>
<path d="M315.583 16.5592C316.287 16.6392 316.923 16.8152 317.491 17.0872C318.067 17.3512 318.555 17.7152 318.955 18.1792C319.355 18.6432 319.663 19.2032 319.879 19.8592C320.103 20.5152 320.215 21.2672 320.215 22.1152C320.215 22.9552 320.103 23.7072 319.879 24.3712C319.663 25.0272 319.355 25.5872 318.955 26.0512C318.563 26.5232 318.091 26.8992 317.539 27.1792C316.987 27.4592 316.375 27.6472 315.703 27.7432L315.571 26.9632C316.171 26.8352 316.699 26.6552 317.155 26.4232C317.611 26.1912 317.995 25.8832 318.307 25.4992C318.619 25.1152 318.855 24.6472 319.015 24.0952C319.175 23.5432 319.255 22.8832 319.255 22.1152C319.255 21.3392 319.155 20.6712 318.955 20.1112C318.763 19.5432 318.495 19.0672 318.151 18.6832C317.807 18.2992 317.399 18.0032 316.927 17.7952C316.463 17.5792 315.959 17.4352 315.415 17.3632L315.583 16.5592Z" fill="black"/>
<path d="M331.678 16.7032H332.494V26.6632H331.678V16.7032Z" fill="black"/>
<path d="M338.873 16.7032H339.689V26.6632H338.873V16.7032Z" fill="black"/>
<path d="M353.264 16.7032H354.08V26.6632H353.264V16.7032Z" fill="black"/>
<path d="M367.654 16.7032H368.47V26.6632H367.654V16.7032Z" fill="black"/>
<path d="M377.045 16.7032H377.861V26.6632H377.045V16.7032Z" fill="black"/>
<path d="M0.693527 29.7032H1.50953V39.6632H0.693527V29.7032Z" fill="black"/>
<path d="M15.0842 29.7032H15.9002V39.6632H15.0842V29.7032Z" fill="black"/>
<path d="M36.6701 29.7032H37.4861V39.6632H36.6701V29.7032Z" fill="black"/>
<path d="M51.0607 29.7032H51.8767V39.6632H51.0607V29.7032Z" fill="black"/>
<path d="M70.1267 39.7232H75.9827V40.5632H70.1267V39.7232Z" fill="black"/>
<path d="M77.322 39.7232H83.178V40.5632H77.322V39.7232Z" fill="black"/>
<path d="M89.2573 29.5592L90.0133 29.8952L85.6333 39.7832L84.8773 39.4472L89.2573 29.5592Z" fill="black"/>
<path d="M104.188 40.7432C103.484 40.6632 102.844 40.4872 102.268 40.2152C101.7 39.9512 101.216 39.5872 100.816 39.1232C100.416 38.6672 100.104 38.1112 99.8799 37.4552C99.6639 36.7992 99.5559 36.0432 99.5559 35.1872C99.5559 34.3472 99.6639 33.5992 99.8799 32.9432C100.096 32.2792 100.4 31.7152 100.792 31.2512C101.192 30.7792 101.668 30.4032 102.22 30.1232C102.78 29.8432 103.396 29.6552 104.068 29.5592L104.2 30.3392C103.6 30.4672 103.072 30.6472 102.616 30.8792C102.16 31.1112 101.776 31.4192 101.464 31.8032C101.152 32.1872 100.916 32.6552 100.756 33.2072C100.596 33.7592 100.516 34.4192 100.516 35.1872C100.516 35.9632 100.612 36.6352 100.804 37.2032C101.004 37.7632 101.276 38.2352 101.62 38.6192C101.964 39.0032 102.368 39.2992 102.832 39.5072C103.304 39.7232 103.812 39.8672 104.356 39.9392L104.188 40.7432Z" fill="black"/>
<path d="M106.103 39.7232H111.959V40.5632H106.103V39.7232Z" fill="black"/>
<path d="M115.819 29.7032H116.635V39.6632H115.819V29.7032Z" fill="black"/>
<path d="M132.969 40.7432C132.265 40.6632 131.625 40.4872 131.049 40.2152C130.481 39.9512 129.997 39.5872 129.597 39.1232C129.197 38.6672 128.885 38.1112 128.661 37.4552C128.445 36.7992 128.337 36.0432 128.337 35.1872C128.337 34.3472 128.445 33.5992 128.661 32.9432C128.877 32.2792 129.181 31.7152 129.573 31.2512C129.973 30.7792 130.449 30.4032 131.001 30.1232C131.561 29.8432 132.177 29.6552 132.849 29.5592L132.981 30.3392C132.381 30.4672 131.853 30.6472 131.397 30.8792C130.941 31.1112 130.557 31.4192 130.245 31.8032C129.933 32.1872 129.697 32.6552 129.537 33.2072C129.377 33.7592 129.297 34.4192 129.297 35.1872C129.297 35.9632 129.393 36.6352 129.585 37.2032C129.785 37.7632 130.057 38.2352 130.401 38.6192C130.745 39.0032 131.149 39.2992 131.613 39.5072C132.085 39.7232 132.593 39.8672 133.137 39.9392L132.969 40.7432Z" fill="black"/>
<path d="M134.884 39.7232H140.74V40.5632H134.884V39.7232Z" fill="black"/>
<path d="M144.6 29.7032H145.416V39.6632H144.6V29.7032Z" fill="black"/>
<path d="M161.75 40.7432C161.046 40.6632 160.406 40.4872 159.83 40.2152C159.262 39.9512 158.778 39.5872 158.378 39.1232C157.978 38.6672 157.666 38.1112 157.442 37.4552C157.226 36.7992 157.118 36.0432 157.118 35.1872C157.118 34.3472 157.226 33.5992 157.442 32.9432C157.658 32.2792 157.962 31.7152 158.354 31.2512C158.754 30.7792 159.23 30.4032 159.782 30.1232C160.342 29.8432 160.958 29.6552 161.63 29.5592L161.762 30.3392C161.162 30.4672 160.634 30.6472 160.178 30.8792C159.722 31.1112 159.338 31.4192 159.026 31.8032C158.714 32.1872 158.478 32.6552 158.318 33.2072C158.158 33.7592 158.078 34.4192 158.078 35.1872C158.078 35.9632 158.174 36.6352 158.366 37.2032C158.566 37.7632 158.838 38.2352 159.182 38.6192C159.526 39.0032 159.93 39.2992 160.394 39.5072C160.866 39.7232 161.374 39.8672 161.918 39.9392L161.75 40.7432Z" fill="black"/>
<path d="M163.666 39.7232H169.522V40.5632H163.666V39.7232Z" fill="black"/>
<path d="M173.381 29.7032H174.197V39.6632H173.381V29.7032Z" fill="black"/>
<path d="M187.772 29.7032H188.588V39.6632H187.772V29.7032Z" fill="black"/>
<path d="M202.162 29.7032H202.978V39.6632H202.162V29.7032Z" fill="black"/>
<path d="M216.553 29.7032H217.369V39.6632H216.553V29.7032Z" fill="black"/>
<path d="M230.944 29.7032H231.76V39.6632H230.944V29.7032Z" fill="black"/>
<path d="M248.094 40.7432C247.39 40.6632 246.75 40.4872 246.174 40.2152C245.606 39.9512 245.122 39.5872 244.722 39.1232C244.322 38.6672 244.01 38.1112 243.786 37.4552C243.57 36.7992 243.462 36.0432 243.462 35.1872C243.462 34.3472 243.57 33.5992 243.786 32.9432C244.002 32.2792 244.306 31.7152 244.698 31.2512C245.098 30.7792 245.574 30.4032 246.126 30.1232C246.686 29.8432 247.302 29.6552 247.974 29.5592L248.106 30.3392C247.506 30.4672 246.978 30.6472 246.522 30.8792C246.066 31.1112 245.682 31.4192 245.37 31.8032C245.058 32.1872 244.822 32.6552 244.662 33.2072C244.502 33.7592 244.422 34.4192 244.422 35.1872C244.422 35.9632 244.518 36.6352 244.71 37.2032C244.91 37.7632 245.182 38.2352 245.526 38.6192C245.87 39.0032 246.274 39.2992 246.738 39.5072C247.21 39.7232 247.718 39.8672 248.262 39.9392L248.094 40.7432Z" fill="black"/>
<path d="M250.009 39.7232H255.865V40.5632H250.009V39.7232Z" fill="black"/>
<path d="M258.021 29.5592C258.725 29.6392 259.361 29.8152 259.929 30.0872C260.505 30.3512 260.993 30.7152 261.393 31.1792C261.793 31.6432 262.101 32.2032 262.317 32.8592C262.541 33.5152 262.653 34.2672 262.653 35.1152C262.653 35.9552 262.541 36.7072 262.317 37.3712C262.101 38.0272 261.793 38.5872 261.393 39.0512C261.001 39.5232 260.529 39.8992 259.977 40.1792C259.425 40.4592 258.813 40.6472 258.141 40.7432L258.009 39.9632C258.609 39.8352 259.137 39.6552 259.593 39.4232C260.049 39.1912 260.433 38.8832 260.745 38.4992C261.057 38.1152 261.293 37.6472 261.453 37.0952C261.613 36.5432 261.693 35.8832 261.693 35.1152C261.693 34.3392 261.593 33.6712 261.393 33.1112C261.201 32.5432 260.933 32.0672 260.589 31.6832C260.245 31.2992 259.837 31.0032 259.365 30.7952C258.901 30.5792 258.397 30.4352 257.853 30.3632L258.021 29.5592Z" fill="black"/>
<path d="M269.115 29.7032H269.931V39.6632H269.115V29.7032Z" fill="black"/>
<path d="M297.921 29.5592L298.677 29.8952L294.297 39.7832L293.541 39.4472L297.921 29.5592Z" fill="black"/>
<path d="M307.572 39.7232H313.428V40.5632H307.572V39.7232Z" fill="black"/>
<path d="M314.767 39.7232H320.623V40.5632H314.767V39.7232Z" fill="black"/>
<path d="M326.703 29.5592L327.459 29.8952L323.079 39.7832L322.323 39.4472L326.703 29.5592Z" fill="black"/>
<path d="M338.873 29.7032H339.689V39.6632H338.873V29.7032Z" fill="black"/>
<path d="M353.264 29.7032H354.08V39.6632H353.264V29.7032Z" fill="black"/>
<path d="M357.939 39.7232H363.795V40.5632H357.939V39.7232Z" fill="black"/>
<path d="M367.654 29.7032H368.47V39.6632H367.654V29.7032Z" fill="black"/>
<path d="M377.045 29.7032H377.861V39.6632H377.045V29.7032Z" fill="black"/>
<path d="M0.693527 42.7032H1.50953V52.6632H0.693527V42.7032Z" fill="black"/>
<path d="M5.36884 52.7232H11.2248V53.5632H5.36884V52.7232Z" fill="black"/>
<path d="M15.0842 42.7032H15.9002V52.6632H15.0842V42.7032Z" fill="black"/>
<path d="M36.6701 42.7032H37.4861V52.6632H36.6701V42.7032Z" fill="black"/>
<path d="M41.3454 52.7232H47.2014V53.5632H41.3454V52.7232Z" fill="black"/>
<path d="M51.0607 42.7032H51.8767V52.6632H51.0607V42.7032Z" fill="black"/>
<path d="M61.28 52.4352L60.488 52.7832L56.048 42.8952L56.852 42.5592L61.28 52.4352Z" fill="black"/>
<path d="M62.9313 52.7232H68.7873V53.5632H62.9313V52.7232Z" fill="black"/>
<path d="M70.1267 52.7232H75.9827V53.5632H70.1267V52.7232Z" fill="black"/>
<path d="M77.322 52.7232H83.178V53.5632H77.322V52.7232Z" fill="black"/>
<path d="M87.0373 42.7032H87.8533V52.6632H87.0373V42.7032Z" fill="black"/>
<path d="M97.2566 52.4352L96.4646 52.7832L92.0246 42.8952L92.8286 42.5592L97.2566 52.4352Z" fill="black"/>
<path d="M98.9079 52.7232H104.764V53.5632H98.9079V52.7232Z" fill="black"/>
<path d="M106.103 52.7232H111.959V53.5632H106.103V52.7232Z" fill="black"/>
<path d="M113.299 52.7232H119.155V53.5632H113.299V52.7232Z" fill="black"/>
<path d="M126.038 52.4352L125.246 52.7832L120.806 42.8952L121.61 42.5592L126.038 52.4352Z" fill="black"/>
<path d="M127.689 52.7232H133.545V53.5632H127.689V52.7232Z" fill="black"/>
<path d="M134.884 52.7232H140.74V53.5632H134.884V52.7232Z" fill="black"/>
<path d="M142.08 52.7232H147.936V53.5632H142.08V52.7232Z" fill="black"/>
<path d="M154.819 52.4352L154.027 52.7832L149.587 42.8952L150.391 42.5592L154.819 52.4352Z" fill="black"/>
<path d="M156.47 52.7232H162.326V53.5632H156.47V52.7232Z" fill="black"/>
<path d="M163.666 52.7232H169.522V53.5632H163.666V52.7232Z" fill="black"/>
<path d="M172.937 50.4432C172.937 50.2032 173.013 50.0112 173.165 49.8672C173.325 49.7152 173.529 49.6392 173.777 49.6392C174.081 49.6392 174.317 49.7472 174.485 49.9632C174.653 50.1712 174.737 50.4672 174.737 50.8512C174.737 51.1632 174.685 51.4352 174.581 51.6672C174.477 51.9072 174.345 52.1072 174.185 52.2672C174.033 52.4352 173.865 52.5672 173.681 52.6632C173.505 52.7672 173.341 52.8432 173.189 52.8912L172.889 52.4232C173.177 52.3112 173.425 52.1512 173.633 51.9432C173.841 51.7352 173.945 51.4832 173.945 51.1872C173.833 51.2112 173.745 51.2232 173.681 51.2232C173.449 51.2232 173.265 51.1592 173.129 51.0312C173.001 50.8952 172.937 50.6992 172.937 50.4432Z" fill="black"/>
<path d="M178.056 52.7232H183.912V53.5632H178.056V52.7232Z" fill="black"/>
<path d="M187.772 42.7032H188.588V52.6632H187.772V42.7032Z" fill="black"/>
<path d="M192.447 52.7232H198.303V53.5632H192.447V52.7232Z" fill="black"/>
<path d="M202.162 42.7032H202.978V52.6632H202.162V42.7032Z" fill="black"/>
<path d="M216.553 42.7032H217.369V52.6632H216.553V42.7032Z" fill="black"/>
<path d="M221.228 52.7232H227.084V53.5632H221.228V52.7232Z" fill="black"/>
<path d="M230.944 42.7032H231.76V52.6632H230.944V42.7032Z" fill="black"/>
<path d="M241.163 52.4352L240.371 52.7832L235.931 42.8952L236.735 42.5592L241.163 52.4352Z" fill="black"/>
<path d="M242.814 52.7232H248.67V53.5632H242.814V52.7232Z" fill="black"/>
<path d="M250.009 52.7232H255.865V53.5632H250.009V52.7232Z" fill="black"/>
<path d="M257.205 52.7232H263.061V53.5632H257.205V52.7232Z" fill="black"/>
<path d="M269.14 42.5592L269.896 42.8952L265.516 52.7832L264.76 52.4472L269.14 42.5592Z" fill="black"/>
<path d="M288.506 42.7032H289.322V52.6632H288.506V42.7032Z" fill="black"/>
<path d="M293.181 52.7232H299.037V53.5632H293.181V52.7232Z" fill="black"/>
<path d="M300.377 52.7232H306.233V53.5632H300.377V52.7232Z" fill="black"/>
<path d="M307.572 52.7232H313.428V53.5632H307.572V52.7232Z" fill="black"/>
<path d="M314.767 52.7232H320.623V53.5632H314.767V52.7232Z" fill="black"/>
<path d="M321.963 52.7232H327.819V53.5632H321.963V52.7232Z" fill="black"/>
<path d="M334.438 53.7432C333.734 53.6632 333.094 53.4872 332.518 53.2152C331.95 52.9512 331.466 52.5872 331.066 52.1232C330.666 51.6672 330.354 51.1112 330.13 50.4552C329.914 49.7992 329.806 49.0432 329.806 48.1872C329.806 47.3472 329.914 46.5992 330.13 45.9432C330.346 45.2792 330.65 44.7152 331.042 44.2512C331.442 43.7792 331.918 43.4032 332.47 43.1232C333.03 42.8432 333.646 42.6552 334.318 42.5592L334.45 43.3392C333.85 43.4672 333.322 43.6472 332.866 43.8792C332.41 44.1112 332.026 44.4192 331.714 44.8032C331.402 45.1872 331.166 45.6552 331.006 46.2072C330.846 46.7592 330.766 47.4192 330.766 48.1872C330.766 48.9632 330.862 49.6352 331.054 50.2032C331.254 50.7632 331.526 51.2352 331.87 51.6192C332.214 52.0032 332.618 52.2992 333.082 52.5072C333.554 52.7232 334.062 52.8672 334.606 52.9392L334.438 53.7432Z" fill="black"/>
<path d="M336.353 52.7232H342.209V53.5632H336.353V52.7232Z" fill="black"/>
<path d="M344.365 42.5592C345.069 42.6392 345.705 42.8152 346.273 43.0872C346.849 43.3512 347.337 43.7152 347.737 44.1792C348.137 44.6432 348.445 45.2032 348.661 45.8592C348.885 46.5152 348.997 47.2672 348.997 48.1152C348.997 48.9552 348.885 49.7072 348.661 50.3712C348.445 51.0272 348.137 51.5872 347.737 52.0512C347.345 52.5232 346.873 52.8992 346.321 53.1792C345.769 53.4592 345.157 53.6472 344.485 53.7432L344.353 52.9632C344.953 52.8352 345.481 52.6552 345.937 52.4232C346.393 52.1912 346.777 51.8832 347.089 51.4992C347.401 51.1152 347.637 50.6472 347.797 50.0952C347.957 49.5432 348.037 48.8832 348.037 48.1152C348.037 47.3392 347.937 46.6712 347.737 46.1112C347.545 45.5432 347.277 45.0672 346.933 44.6832C346.589 44.2992 346.181 44.0032 345.709 43.7952C345.245 43.5792 344.741 43.4352 344.197 43.3632L344.365 42.5592Z" fill="black"/>
<path d="M350.744 52.7232H356.6V53.5632H350.744V52.7232Z" fill="black"/>
<path d="M357.939 52.7232H363.795V53.5632H357.939V52.7232Z" fill="black"/>
<path d="M365.134 52.7232H370.99V53.5632H365.134V52.7232Z" fill="black"/>
<path d="M377.07 42.5592L377.826 42.8952L373.446 52.7832L372.69 52.4472L377.07 42.5592Z" fill="black"/>
</svg>
